<?xml version="1.0" standalone="no"?><!DOCTYPE svg PUBLIC "-//W3C//DTD SVG 1.1//EN" "http://www.w3.org/Graphics/SVG/1.1/DTD/svg11.dtd"><svg t="1772779031771" class="icon" viewBox="0 0 1024 1024" version="1.1" xmlns="http://www.w3.org/2000/svg" p-id="4972" width="500" height="500" xmlns:xlink="http://www.w3.org/1999/xlink"><path d="M911.4624 670.8736l-176.6912-346.7264c-10.9056-21.3504-40.0384-24.7296-55.4496-6.4L409.6512 637.44 318.9248 459.4688c-6.5536-12.8512-24.064-14.848-33.3824-3.84l-175.9232 208.5888c-11.0592 13.1072-1.7408 33.1776 15.4112 33.1776H380.928c4.5056 12.4416 16.0256 22.2208 31.488 22.2208h469.1456c25.088 0 41.2672-26.4704 29.9008-48.7424z" fill="#B3FFC7" p-id="4973"></path><path d="M472.32 260.2496m-96.5632 0a96.5632 96.5632 0 1 0 193.1264 0 96.5632 96.5632 0 1 0-193.1264 0Z" fill="#D9FFE6" p-id="4974"></path><path d="M734.7712 324.1472c-10.9056-21.3504-40.0384-24.7296-55.4496-6.4L409.6512 637.44 318.9248 459.4688c-6.5536-12.8512-24.064-14.848-33.3824-3.84l-120.0128 142.2848a396.1088 396.1088 0 0 0 174.6944 83.712c193.3824 39.424 382.464-68.7104 450.816-247.0912l-56.2688-110.3872z" fill="#CCFFDA" p-id="4975"></path><path d="M362.24 544.4608l-43.3152-84.992c-6.5536-12.8512-24.064-14.848-33.3824-3.84l-70.8096 83.968a456.74496 456.74496 0 0 0 147.5072 4.864zM705.6896 305.92a33.1776 33.1776 0 0 0-26.4192 11.8784l-137.1136 162.6112c68.096-42.0864 125.0816-101.888 163.5328-174.4896z" fill="#D9FFE6" p-id="4976"></path><path d="M568.9344 242.8928c-8.192-45.056-47.5136-79.2576-94.9248-79.2576-53.3504 0-96.5632 43.264-96.5632 96.5632 0 40.0896 24.4224 74.496 59.2384 89.088a452.99712 452.99712 0 0 0 132.2496-106.3936z" fill="#E9FFF1" p-id="4977"></path><path d="M881.6128 747.776H412.4672c-24.2688 0-45.7216-13.6704-55.9104-35.6864-10.24-22.016-6.8608-47.2064 8.8064-65.7408l292.4544-346.7264c13.3632-15.8208 33.6384-23.8592 54.2208-21.504 20.5824 2.3552 38.5024 14.7968 47.872 33.28l176.6912 346.7264c9.8304 19.2512 8.96 41.7792-2.3552 60.2112s-31.0272 29.44-52.6336 29.44z m-176.7936-413.7472c-1.2288 0-2.7648 0.4096-4.0448 1.8944l-292.4544 346.7264c-0.5632 0.6656-2.2016 2.6112-0.768 5.6832 1.4336 3.072 3.9936 3.072 4.864 3.072h469.1456c1.9968 0 3.5328-0.8704 4.5568-2.56s1.1264-3.4304 0.2048-5.2224L709.632 336.896a5.1712 5.1712 0 0 0-4.1472-2.8672h-0.6656zM897.4848 878.7456H122.368c-15.5648 0-28.16-12.5952-28.16-28.16s12.5952-28.16 28.16-28.16h775.1168c15.5648 0 28.16 12.5952 28.16 28.16s-12.5952 28.16-28.16 28.16zM474.0096 385.024c-68.7616 0-124.7232-55.9616-124.7232-124.7744s55.9616-124.7232 124.7232-124.7232 124.7232 55.9616 124.7232 124.7232S542.7712 385.024 474.0096 385.024z m0-193.1776c-37.7344 0-68.4032 30.72-68.4032 68.4032s30.72 68.4544 68.4032 68.4544 68.4032-30.72 68.4032-68.4544-30.6688-68.4032-68.4032-68.4032z" fill="#333333" p-id="4978"></path><path d="M270.8992 725.2992H132.9152c-21.504 0-40.4992-12.1344-49.5616-31.5904-9.0624-19.5072-6.0928-41.8304 7.7824-58.2656l162.8672-193.1264a54.4768 54.4768 0 0 1 48.0256-19.0464c18.2272 2.0992 34.0992 13.1072 42.4448 29.44l39.168 76.8512c7.0656 13.8752 1.536 30.8224-12.288 37.888-13.8752 7.0656-30.8224 1.536-37.888-12.288L295.424 480.5632l-158.8736 188.3648h134.4c15.5648 0 28.16 12.5952 28.16 28.16s-12.6464 28.2112-28.2112 28.2112z" fill="#333333" p-id="4979"></path></svg>