<?xml version="1.0" standalone="no"?><!DOCTYPE svg PUBLIC "-//W3C//DTD SVG 1.1//EN" "http://www.w3.org/Graphics/SVG/1.1/DTD/svg11.dtd"><svg t="1773718621961" class="icon" viewBox="0 0 1024 1024" version="1.1" xmlns="http://www.w3.org/2000/svg" p-id="5909" width="500" height="500" xmlns:xlink="http://www.w3.org/1999/xlink"><path d="M611.7376 157.6448c-18.5856-12.1344-42.3936-12.8-61.5936-1.792L199.168 357.4272l90.7264 0.6656v97.536l-190.8736 108.9024 68.9152-10.1376v257.5872c0 32.1024 26.0096 58.112 58.112 58.112h567.8592c32.1024 0 58.112-26.0096 58.112-58.112V362.0864l73.2672 0.512-313.5488-204.9536z" fill="#B3FFC7" p-id="5910"></path><path d="M550.0928 155.8528L199.168 357.4272l90.7264 0.6656v97.536l-190.8736 108.9024 68.9152-10.1376v196.096c39.9872 23.552 84.48 41.0112 132.5056 50.8416 232.8064 47.4624 460.032-102.7584 507.4944-335.5648 12.5952-61.8496 11.264-123.2896-1.8432-181.0432l-194.4576-127.0784a58.79808 58.79808 0 0 0-61.5424-1.792z" fill="#CCFFDA" p-id="5911"></path><path d="M611.7376 157.6448c-18.5856-12.1344-42.3936-12.8-61.5936-1.792L199.168 357.4272l90.7264 0.6656v97.536l-190.8736 108.9024 68.9152-10.1376v93.952c264.4992 50.432 521.1648-121.0368 575.1296-385.6896 1.1776-5.7344 2.2016-11.4176 3.1232-17.1008l-134.4512-87.9104z" fill="#D9FFE6" p-id="5912"></path><path d="M216.32 497.6128c188.928-15.9232 355.2768-141.4144 419.7376-324.096l-24.3712-15.9232c-18.5856-12.1344-42.3936-12.8-61.5936-1.792L199.168 357.4272l90.7264 0.6656v97.536l-73.5744 41.984z" fill="#E9FFF1" p-id="5913"></path><path d="M940.6976 338.9952l-313.6-204.9536c-27.5968-18.0224-62.464-19.0464-91.0336-2.6112L185.1392 333.0048a28.20096 28.20096 0 0 0-10.3936 38.4512 28.19072 28.19072 0 0 0 38.4512 10.3936l50.688-29.0816v85.3504l-178.7392 101.9904c-13.5168 7.7312-18.2272 24.9344-10.496 38.4a28.11392 28.11392 0 0 0 24.4736 14.2336c4.7104 0 9.5232-1.1776 13.9264-3.6864l26.7776-15.3088v238.2336c0 47.5648 38.7072 86.272 86.272 86.272h567.8592c47.5648 0 86.272-38.7072 86.272-86.272V366.7456l29.696 19.4048c4.7616 3.1232 10.0864 4.608 15.36 4.608 9.1648 0 18.176-4.5056 23.6032-12.7488 8.4992-13.056 4.864-30.5152-8.192-39.0144z m-116.8384 472.9856c0 16.5376-13.4144 29.952-29.952 29.952H226.0992c-16.5376 0-29.952-13.4144-29.952-29.952v-270.3872l104.6016-59.6992c3.6352-1.1776 6.9632-3.1232 9.7792-5.5808l129.5872-73.9328a30.97088 30.97088 0 0 1 32.6144 1.3312l152.8832 104.2944a28.1856 28.1856 0 0 0 39.1168-7.3728 28.1856 28.1856 0 0 0-7.3728-39.1168L504.4224 357.12c-27.3408-18.6368-63.5392-20.0704-92.2624-3.6864L320.2048 405.9648V320.4096l243.968-140.1344a30.78144 30.78144 0 0 1 32.2048 0.9216l227.584 148.736v482.048z" fill="#333333" p-id="5914"></path><path d="M606.1056 572.3648H312.32c-15.5648 0-28.16 12.5952-28.16 28.16v122.6752c0 15.5648 12.5952 28.16 28.16 28.16h293.7856c15.5648 0 28.16-12.5952 28.16-28.16v-122.6752c0-15.5136-12.5952-28.16-28.16-28.16z m-28.16 122.6752H340.48v-66.3552h237.4656v66.3552zM552.5504 330.752c0 15.5648 12.5952 28.16 28.16 28.16h92.8768c15.5648 0 28.16-12.5952 28.16-28.16s-12.5952-28.16-28.16-28.16h-92.8768c-15.5136 0-28.16 12.5952-28.16 28.16z" fill="#333333" p-id="5915"></path></svg>