<?xml version="1.0" standalone="no"?><!DOCTYPE svg PUBLIC "-//W3C//DTD SVG 1.1//EN" "http://www.w3.org/Graphics/SVG/1.1/DTD/svg11.dtd"><svg t="1773889243384" class="icon" viewBox="0 0 1024 1024" version="1.1" xmlns="http://www.w3.org/2000/svg" p-id="5871" width="500" height="500" xmlns:xlink="http://www.w3.org/1999/xlink"><path d="M733.866667 998.4H364.8c-81.066667 0-147.2-66.133333-147.2-147.2 0-17.066667 14.933333-32 32-32s32 14.933333 32 32c0 44.8 36.266667 83.2 83.2 83.2h371.2c44.8 0 83.2-36.266667 83.2-83.2V313.6c0-38.4-12.8-89.6-125.866667-89.6-17.066667 0-32-14.933333-32-32s14.933333-32 32-32c170.666667 0 189.866667 106.666667 189.866667 153.6V853.333333c-2.133333 81.066667-68.266667 145.066667-149.333333 145.066667z" fill="#FFBB12" p-id="5872"></path><path d="M576 878.933333H206.933333c-81.066667 0-147.2-66.133333-147.2-147.2V192c0-81.066667 66.133333-147.2 147.2-147.2H576c81.066667 0 147.2 66.133333 147.2 147.2v539.733333c0 81.066667-66.133333 147.2-147.2 147.2zM123.733333 192v539.733333c0 44.8 36.266667 83.2 83.2 83.2H576c44.8 0 83.2-36.266667 83.2-83.2V192c0-44.8-36.266667-83.2-83.2-83.2H206.933333C177.066667 108.8 123.733333 147.2 123.733333 192z" fill="#543E3E" p-id="5873"></path><path d="M381.866667 279.466667h-110.933334c-17.066667 0-32-14.933333-32-32s14.933333-32 32-32h110.933334c17.066667 0 32 14.933333 32 32s-14.933333 32-32 32zM469.333333 465.066667h-192c-17.066667 0-32-14.933333-32-32s14.933333-32 32-32h192c17.066667 0 32 14.933333 32 32s-12.8 32-32 32z" fill="#FFBB12" p-id="5874"></path></svg>